<?xml version="1.0" encoding="UTF-8" standalone="no"?><!--Created with Inkscape (http://www.inkscape.org/)--><svg xmlns="http://www.w3.org/2000/svg" width="1122.52" height="205.701"><defs><clipPath id="a" clipPathUnits="userSpaceOnUse"><path d="M-284.01241 292.50699h841.89v-595.276h-841.89Z"/></clipPath><clipPath id="b" clipPathUnits="userSpaceOnUse"><path d="M-593.62351 295.27859h841.89v-595.276h-841.89Z"/></clipPath><clipPath id="c" clipPathUnits="userSpaceOnUse"><path d="M-415.62031 342.90129h841.89v-595.276h-841.89Z"/></clipPath><clipPath id="d" clipPathUnits="userSpaceOnUse"><path d="M-710.51272 242.11319h841.89v-595.276h-841.89Z"/></clipPath><clipPath id="e" clipPathUnits="userSpaceOnUse"><path d="M-233.19111 331.77609h841.89v-595.276h-841.89Z"/></clipPath></defs><path d="M0 0v33.008c0 12.85 2.016 15.37 14.11 15.37h.253c21.668 0 31.748-4.536 31.748-23.938C46.111 5.291 36.031 0 14.363 0Zm68.159-25.197C64.631-7.937 55.685-3.528 36.031-1.008 54.678 1.008 68.537 7.055 68.537 24.44c0 23.433-25.45 25.953-54.174 25.953H-34.52v-2.015c12.094 0 14.11-2.52 14.11-15.37V-33.26c0-12.598-2.016-15.118-14.11-15.118v-2.016h48.63v2.016C2.016-48.378 0-45.858 0-33.26v31.244h14.363c21.668 0 33.764-3.527 33.764-26.709 0-21.669 19.149-32.756 41.573-14.11l-1.007 1.764c-8.314-4.536-17.638 2.015-20.534 15.874" clip-path="url(#a)" style="fill:#2c2e83;fill-opacity:1;fill-rule:nonzero;stroke:none" transform="matrix(1.7506141 0 0 -1.7506141 331.84532 94.104105)"/><path d="M0 0h-15.621v.018h-20.41v-30.506c0-12.598-2.017-15.118-14.112-15.118v-2.016h48.631v2.016c-12.095 0-14.109 2.52-14.109 15.118v28.22H.251c19.654 0 25.198-7.054 25.198-22.173h2.015v46.615h-2.015C25.449 6.804 19.654 0 0 0" clip-path="url(#b)" style="fill:#2c2e83;fill-opacity:1;fill-rule:nonzero;stroke:none" transform="matrix(1.7506141 0 0 -1.7506141 873.85488 98.956106)"/><path d="M0 0c-22.801 0-31.187 12.85-31.187 50.646 0 37.544 8.386 50.142 31.187 50.142 22.801 0 30.924-12.598 30.924-50.142C30.924 12.85 22.801 0 0 0m88.713 47.623H73.092v.018H54.416c.058.995.095 1.996.095 3.005 0 28.976-24.374 52.158-54.511 52.158-30.14 0-54.513-23.182-54.513-52.158C-54.513 21.669-30.14-2.015 0-2.015c25.282 0 46.499 16.67 52.682 39.147V17.135c0-12.598-2.016-15.118-14.112-15.118V.001h48.632v2.016c-12.096 0-14.11 2.52-14.11 15.118v28.22h15.873c19.654 0 25.198-7.055 25.198-22.174h2.014v46.616h-2.014c0-15.371-5.796-22.174-25.45-22.174" clip-path="url(#c)" style="fill:#2c2e83;fill-opacity:1;fill-rule:nonzero;stroke:none" transform="matrix(1.7506141 0 0 -1.7506141 562.23997 182.32507)"/><path d="M0 0h-256.322v-2.015c.013 0 .025-.001.038-.001h47.711v-.012c.297.003.572.013.882.013h15.622c19.402 0 29.228-11.339 29.228-26.709h2.017v26.708h41.54v-.012c.298.003.573.013.883.013h15.621c19.403 0 29.229-11.339 29.229-26.709h2.016v26.709h22.904V-83.653c0-12.598-1.763-15.118-14.11-15.118v-2.017h48.883v2.017c-12.096 0-14.11 2.52-14.11 15.118v81.637h15.277c19.392-.006 29.213-11.342 29.213-26.708h2.016V0Z" clip-path="url(#d)" style="fill:#2c2e83;fill-opacity:1;fill-rule:nonzero;stroke:none" transform="matrix(1.7506141 0 0 -1.7506141 1078.4827 5.8840062)"/><path d="m0 0-.17.341c-8.314-5.04-17.638.251-20.786 15.118-3.528 16.881-11.213 29.606-42.458 30.362l31.748 24.44C-19.962 79.31-7.342 86.953 3.002 87.586c9.39-11.48 15.033-26.136 15.033-42.088C18.035 27.915 11.173 11.914 0 0m-48.549-21.086c-24.366 0-45.706 13.163-57.312 32.743l20.023 16.024v-.002l.241.194 1.935 1.549-.007.009 17.483 14.121c21.67 0 25.449-10.959 25.449-33.889 0-16.746 11.592-26.705 27.091-20.837-10.157-6.278-22.112-9.912-34.903-9.912M4.286 89.663h-49.875v-2.108c18.046-.759 19.198-7.96 10.143-16.538l-42.078-33.453v34.714c0 12.542 1.947 15.236 13.286 15.358h2.009v2.027H-132.654v-2.027h21.394c11.374-.116 13.327-2.801 13.327-15.358v-51.01l-8.572-6.859-.639-.512-1.834-1.468c.013-.025.029-.049.043-.075.195-.351.401-.695.6-1.043.215-.373.423-.75.644-1.118 12.048-20.105 34.046-33.596 59.142-33.596 37.993 0 68.902 30.908 68.902 68.901 0 16.794-6.046 32.197-16.067 44.165" clip-path="url(#e)" style="fill:#2c2e83;fill-opacity:1;fill-rule:nonzero;stroke:none" transform="matrix(1.7506141 0 0 -1.7506141 242.87683 162.84914)"/></svg>