<?xml version="1.0" encoding="UTF-8" standalone="no"?><!--Created with Inkscape (http://www.inkscape.org/)--><svg xmlns="http://www.w3.org/2000/svg" width="1122.52" height="793.70135"><defs><clipPath id="a" clipPathUnits="userSpaceOnUse"><path d="M-525.53632 360.65609h841.89v-595.276h-841.89Z"/></clipPath></defs><path d="m0 0-.339.648c-16.53-9.586-35.066.478-41.325 28.756-7.014 32.112-22.293 56.316-84.412 57.754l63.118 46.489c23.271 17.212 48.362 31.75 68.927 32.953 18.667-21.835 29.888-49.713 29.888-80.056C35.857 53.098 22.213 22.662 0 0m-96.523-40.108c-48.443 0-90.869 25.037-113.945 62.282l39.81 30.478v-.003l.478.369 3.848 2.946-.014.017 34.758 26.862c43.084 0 50.597-20.847 50.597-64.462 0-31.854 23.046-50.797 53.86-39.636-20.192-11.941-43.961-18.853-69.392-18.853M8.522 170.551h-99.16v-4.009c35.879-1.444 38.168-15.141 20.166-31.458l-83.656-63.632v66.03c0 23.858 3.869 28.981 26.414 29.213h3.993v3.856h-140.015v-3.855h42.534c22.615-.221 26.496-5.328 26.496-29.214V40.454l-17.041-13.047-1.271-.972-3.647-2.793c.028-.048.058-.094.086-.142.388-.668.797-1.323 1.194-1.985.426-.71.841-1.426 1.28-2.126 23.953-38.244 67.687-63.905 117.582-63.905 75.536 0 136.987 58.791 136.987 131.06 0 31.943-12.021 61.242-31.942 84.007" clip-path="url(#a)" style="fill:#2c2e83;fill-opacity:1;fill-rule:nonzero;stroke:none;stroke-width:0;stroke-dasharray:none" transform="matrix(3.684966 0 0 -3.684966 972.44954 628.93589)"/></svg>